<svg xmlns="http://www.w3.org/2000/svg" style="display:none" aria-hidden="true">
  <symbol id="phone" viewBox="0 0 24 24"><path fill="currentColor" d="M6.6 10.8c1.6 3 4.6 5.9 7.6 7.6l2.5-2.5c.4-.4 1-.5 1.5-.3 1.6.6 3.4.9 5.3.9.8 0 1.5.7 1.5 1.5V21c0 .8-.7 1.5-1.5 1.5C9.9 22.5 1.5 14.1 1.5 3C1.5 2.2 2.2 1.5 3 1.5H6.5c.8 0 1.5.7 1.5 1.5 0 1.9.3 3.7.9 5.3.2.5.1 1.1-.3 1.5L6.6 10.8z"/></symbol>
  <symbol id="mail" viewBox="0 0 24 24"><path fill="currentColor" d="M20 4H4c-1.1 0-2 .9-2 2v12c0 1.1.9 2 2 2h16c1.1 0 2-.9 2-2V6c0-1.1-.9-2-2-2zm0 4-8 5L4 8V6l8 5 8-5v2z"/></symbol>
  <symbol id="map-pin" viewBox="0 0 24 24"><path fill="currentColor" d="M12 2C8.1 2 5 5.1 5 9c0 5.2 7 13 7 13s7-7.8 7-13c0-3.9-3.1-7-7-7zm0 9.5c-1.4 0-2.5-1.1-2.5-2.5S10.6 6.5 12 6.5s2.5 1.1 2.5 2.5S13.4 11.5 12 11.5z"/></symbol>
  <symbol id="clock" viewBox="0 0 24 24"><path fill="currentColor" d="M12 2C6.5 2 2 6.5 2 12s4.5 10 10 10 10-4.5 10-10S17.5 2 12 2zm.5 5H11v6l5.2 3.1.8-1.3-4.5-2.7V7z"/></symbol>
  <symbol id="facebook" viewBox="0 0 24 24"><path fill="currentColor" d="M22 12a10 10 0 1 0-11.5 9.9v-7H7.9V12h2.6V9.8c0-2.6 1.6-4 3.9-4 1.1 0 2.3.2 2.3.2v2.5h-1.3c-1.3 0-1.7.8-1.7 1.6V12h2.9l-.5 2.9h-2.4v7A10 10 0 0 0 22 12z"/></symbol>
  <symbol id="linkedin" viewBox="0 0 24 24"><path fill="currentColor" d="M6.5 8.5h-4V22h4V8.5zm-2-6C2.7 2.5 1 4.1 1 6.2S2.7 10 4.5 10 8 8.4 8 6.2 6.3 2.5 4.5 2.5zm15.5 6.1c-2.1 0-3.4 1.1-4 2.2V8.5H12V22h4.5v-6.9c0-1.9.4-3.7 2.7-3.7s2.3 1.8 2.3 3.6V22H26v-7.7c0-3.7-1.9-5.7-4.5-5.7z"/></symbol>
  <symbol id="whatsapp" viewBox="0 0 24 24"><path fill="currentColor" d="M20.5 3.5A11.8 11.8 0 0 0 12.1 0C5.9 0 1 4.9 1 11c0 1.9.5 3.8 1.5 5.5L0 24l7.7-2c1.6.9 3.4 1.3 5.3 1.3h.1c6.2 0 11.1-4.9 11.1-11.1 0-3-1.2-5.8-3.4-7.9zM12.2 20.6h-.1c-1.6 0-3.2-.4-4.6-1.3l-.3-.2-4.1 1.1 1.1-4-.2-.3c-1-1.7-1.5-3.6-1.5-5.6 0-5.7 4.6-10.3 10.3-10.3 2.7 0 5.3 1.1 7.2 3 1.9 1.9 3 4.5 3 7.2-.1 5.7-4.7 10.4-10.4 10.4zm5.7-7.8c-.3-.2-1.9-.9-2.2-1-.3-.1-.5-.2-.7.2-.2.3-.9 1-1.1 1.2-.2.2-.4.2-.7.1-.3-.2-1.3-.5-2.5-1.6-.9-.8-1.5-1.8-1.7-2.1-.2-.3 0-.5.1-.6l.5-.6c.1-.2.2-.3.3-.5.1-.2 0-.3 0-.5 0-.1-.7-1.7-1-2.3-.3-.6-.6-.5-.7-.5h-.6c-.2 0-.5.1-.8.3-.3.2-1.1 1.1-1.1 2.6s1.1 3 1.3 3.2c.2.3 2.1 3.2 5.1 4.5.7.3 1.3.5 1.7.6.7.2 1.3.2 1.8.1.5-.1 1.9-.8 2.2-1.5.3-.7.3-1.4.2-1.5-.1-.1-.3-.2-.6-.4z"/></symbol>
</svg>
